<svg width="26" height="22" viewBox="0 0 26 22" fill="none" xmlns="http://www.w3.org/2000/svg">
<g clip-path="url(#clip0_73_73)">
<path d="M7.43628 21.9998C7.29647 22.0005 7.15788 21.9774 7.02845 21.9318C6.89902 21.8862 6.78129 21.819 6.68203 21.734C6.58246 21.6488 6.50343 21.5474 6.4495 21.4357C6.39557 21.324 6.3678 21.2042 6.3678 21.0832C6.3678 20.9622 6.39557 20.8424 6.4495 20.7306C6.50343 20.6189 6.58246 20.5176 6.68203 20.4323L15.3612 12.9432C15.958 12.4276 16.2932 11.7286 16.2932 10.9998C16.2932 10.2711 15.958 9.57214 15.3612 9.05651L6.68203 1.56734C6.48199 1.39473 6.36961 1.16062 6.36961 0.916511C6.36961 0.672401 6.48199 0.438289 6.68203 0.265678C6.88207 0.093066 7.15338 -0.00390625 7.43628 -0.00390625C7.71918 -0.00390625 7.99049 0.093066 8.19053 0.265678L16.8697 7.75484C17.3643 8.1806 17.7568 8.68637 18.0246 9.2432C18.2923 9.80003 18.4302 10.397 18.4302 10.9998C18.4302 11.6027 18.2923 12.1997 18.0246 12.7565C17.7568 13.3133 17.3643 13.8191 16.8697 14.2448L8.19053 21.734C8.09126 21.819 7.97354 21.8862 7.84411 21.9318C7.71468 21.9774 7.57609 22.0005 7.43628 21.9998Z" fill="#2B67F6"/>
</g>
<defs>
<clipPath id="clip0_73_73">
<rect width="25.4957" height="22" fill="white"/>
</clipPath>
</defs>
</svg>
