<svg width="21" height="25" viewBox="0 0 21 25" fill="none" xmlns="http://www.w3.org/2000/svg">
<path fill-rule="evenodd" clip-rule="evenodd" d="M21 10.5C21 4.70101 16.299 0 10.5 0C4.70101 0 0 4.70101 0 10.5C0 11.9355 0.288086 13.3038 0.8096 14.5501C2.97267 20.456 10.5552 24.5 10.5552 24.5C10.5552 24.5 19.8694 19.5324 20.7964 12.5681C20.9299 11.8994 21 11.2079 21 10.5Z" fill="white"/>
<path fill-rule="evenodd" clip-rule="evenodd" d="M19.3254 12.3925L19.3159 12.4407L19.3095 12.4894C18.9213 15.4382 16.7214 18.1398 14.3474 20.2138C13.1906 21.2245 12.0563 22.0308 11.21 22.5846C10.9641 22.7454 10.7436 22.8843 10.5552 23C10.43 22.9231 10.2905 22.836 10.1389 22.739C9.43075 22.2857 8.46431 21.6216 7.43597 20.7821C5.34021 19.071 3.15894 16.7688 2.2181 14.1718L2.20643 14.1396L2.19334 14.1079C1.7472 13.0301 1.5 11.8455 1.5 10.5987C1.5 5.57365 5.52944 1.5 10.5 1.5C15.4706 1.5 19.5 5.57365 19.5 10.5987C19.5 11.2141 19.4398 11.8138 19.3254 12.3925Z" fill="#BC1238"/>
<path d="M14.5 10.5C14.5 8.29086 12.7091 6.5 10.5 6.5C8.29086 6.5 6.5 8.29086 6.5 10.5C6.5 12.7091 8.29086 14.5 10.5 14.5C12.7091 14.5 14.5 12.7091 14.5 10.5Z" fill="white"/>
</svg>
