<svg width="14" height="13" viewBox="0 0 14 13" fill="none" xmlns="http://www.w3.org/2000/svg">
<g clip-path="url(#clip0_151_3565)">
<path d="M11.0095 1.79639H10.4301V1.29639C10.4301 1.16378 10.369 1.0366 10.2603 0.942833C10.1517 0.849065 10.0043 0.796387 9.85061 0.796387C9.69693 0.796387 9.54955 0.849065 9.44088 0.942833C9.33221 1.0366 9.27116 1.16378 9.27116 1.29639V1.79639H4.63558V1.29639C4.63558 1.16378 4.57453 1.0366 4.46587 0.942833C4.3572 0.849065 4.20981 0.796387 4.05613 0.796387C3.90246 0.796387 3.75507 0.849065 3.6464 0.942833C3.53774 1.0366 3.47669 1.16378 3.47669 1.29639V1.79639H2.89724C2.12913 1.79718 1.39274 2.06083 0.849598 2.5295C0.306459 2.99817 0.000920081 3.63359 0 4.29639L0 10.2964C0.000920081 10.9592 0.306459 11.5946 0.849598 12.0633C1.39274 12.5319 2.12913 12.7956 2.89724 12.7964H11.0095C11.7776 12.7956 12.514 12.5319 13.0571 12.0633C13.6003 11.5946 13.9058 10.9592 13.9067 10.2964V4.29639C13.9058 3.63359 13.6003 2.99817 13.0571 2.5295C12.514 2.06083 11.7776 1.79718 11.0095 1.79639ZM1.1589 4.29639C1.1589 3.89856 1.34204 3.51703 1.66804 3.23573C1.99405 2.95442 2.4362 2.79639 2.89724 2.79639H11.0095C11.4705 2.79639 11.9127 2.95442 12.2387 3.23573C12.5647 3.51703 12.7479 3.89856 12.7479 4.29639V4.79639H1.1589V4.29639ZM11.0095 11.7964H2.89724C2.4362 11.7964 1.99405 11.6384 1.66804 11.357C1.34204 11.0757 1.1589 10.6942 1.1589 10.2964V5.79639H12.7479V10.2964C12.7479 10.6942 12.5647 11.0757 12.2387 11.357C11.9127 11.6384 11.4705 11.7964 11.0095 11.7964Z" fill="#333333"/>
<path d="M6.95337 9.04639C7.4334 9.04639 7.82254 8.7106 7.82254 8.29639C7.82254 7.88217 7.4334 7.54639 6.95337 7.54639C6.47334 7.54639 6.0842 7.88217 6.0842 8.29639C6.0842 8.7106 6.47334 9.04639 6.95337 9.04639Z" fill="#333333"/>
<path d="M4.05612 9.04639C4.53615 9.04639 4.92529 8.7106 4.92529 8.29639C4.92529 7.88217 4.53615 7.54639 4.05612 7.54639C3.57609 7.54639 3.18695 7.88217 3.18695 8.29639C3.18695 8.7106 3.57609 9.04639 4.05612 9.04639Z" fill="#333333"/>
<path d="M9.85062 9.04639C10.3306 9.04639 10.7198 8.7106 10.7198 8.29639C10.7198 7.88217 10.3306 7.54639 9.85062 7.54639C9.37059 7.54639 8.98145 7.88217 8.98145 8.29639C8.98145 8.7106 9.37059 9.04639 9.85062 9.04639Z" fill="#333333"/>
</g>
<defs>
<clipPath id="clip0_151_3565">
<rect width="13.9067" height="12" fill="white" transform="translate(0 0.796387)"/>
</clipPath>
</defs>
</svg>
