<svg width="21" height="28" viewBox="0 0 21 28" fill="none" xmlns="http://www.w3.org/2000/svg">
<path fill-rule="evenodd" clip-rule="evenodd" d="M10.5 0C16.299 0 21 4.78648 21 10.6909C21 11.4116 20.93 12.1157 20.7964 12.7964C19.8697 19.9071 10.5552 28 10.5552 28C10.5552 28 2.62845 21.1129 0.67228 14.4631C0.237753 13.29 0 12.0187 0 10.6909C0 4.78648 4.70101 0 10.5 0Z" fill="#0087CA"/>
<path d="M14.5 10.6909C14.5 8.44159 12.7091 6.61816 10.5 6.61816C8.29086 6.61816 6.5 8.44159 6.5 10.6909C6.5 12.9402 8.29086 14.7636 10.5 14.7636C12.7091 14.7636 14.5 12.9402 14.5 10.6909Z" fill="white"/>
</svg>
