<svg width="18" height="11" viewBox="0 0 18 11" fill="none" xmlns="http://www.w3.org/2000/svg">
<path opacity="0.5" d="M9 7.53783L15.6799 0.437885C15.8044 0.300891 15.9533 0.191621 16.1179 0.116449C16.2825 0.0412769 16.4596 0.00170911 16.6388 5.41557e-05C16.818 -0.0016008 16.9957 0.0346903 17.1615 0.10681C17.3274 0.178929 17.478 0.285433 17.6047 0.420106C17.7315 0.554779 17.8317 0.714925 17.8995 0.8912C17.9674 1.06747 18.0015 1.25635 17.9999 1.4468C17.9984 1.63725 17.9612 1.82546 17.8904 2.00045C17.8197 2.17545 17.7169 2.33372 17.588 2.46603L9.95407 10.58C9.70101 10.8489 9.35783 11 9 11C8.64217 11 8.29899 10.8489 8.04592 10.58L0.411977 2.46603C0.283089 2.33372 0.180283 2.17545 0.109559 2.00045C0.0388348 1.82546 0.00160799 1.63725 5.09516e-05 1.4468C-0.00150609 1.25635 0.0326378 1.06747 0.10049 0.8912C0.168343 0.714925 0.268545 0.554779 0.39525 0.420106C0.521956 0.285433 0.672627 0.178929 0.838471 0.10681C1.00432 0.0346903 1.18201 -0.0016008 1.3612 5.41557e-05C1.54038 0.00170911 1.71745 0.0412769 1.88209 0.116449C2.04674 0.191621 2.19564 0.300891 2.32013 0.437885L9 7.53783Z" fill="black"/>
</svg>
