<svg width="274" height="266" viewBox="0 0 274 266" fill="none" xmlns="http://www.w3.org/2000/svg">
<path d="M259.919 147.94C259.919 209.087 210.349 258.657 149.201 258.657C88.0531 258.657 38.483 209.087 38.483 147.94C38.483 86.7918 88.0531 37.2217 149.201 37.2217C210.349 37.2217 259.919 86.7918 259.919 147.94Z" fill="#DDF1FF"/>
<path d="M50.4697 116.711C50.4697 130.648 39.1717 141.946 25.2348 141.946C11.298 141.946 0 130.648 0 116.711C0 102.775 11.298 91.4766 25.2348 91.4766C39.1717 91.4766 50.4697 102.775 50.4697 116.711Z" fill="#DDF1FF"/>
<path fill-rule="evenodd" clip-rule="evenodd" d="M25.2348 141.913C39.1532 141.913 50.4363 130.63 50.4363 116.711C50.4363 102.793 39.1532 91.51 25.2348 91.51C11.3165 91.51 0.0334141 102.793 0.0334141 116.711C0.0334141 130.63 11.3165 141.913 25.2348 141.913ZM25.2348 141.946C39.1717 141.946 50.4697 130.648 50.4697 116.711C50.4697 102.775 39.1717 91.4766 25.2348 91.4766C11.298 91.4766 0 102.775 0 116.711C0 130.648 11.298 141.946 25.2348 141.946Z" fill="#0087CA"/>
<path d="M89.5836 15.7718C89.5836 24.4823 82.5223 31.5436 73.8118 31.5436C65.1013 31.5436 58.04 24.4823 58.04 15.7718C58.04 7.06127 65.1013 0 73.8118 0C82.5223 0 89.5836 7.06127 89.5836 15.7718Z" fill="#DDF1FF"/>
<path fill-rule="evenodd" clip-rule="evenodd" d="M73.8118 31.5227C82.5108 31.5227 89.5627 24.4708 89.5627 15.7718C89.5627 7.0728 82.5108 0.0208838 73.8118 0.0208838C65.1128 0.0208838 58.0609 7.0728 58.0609 15.7718C58.0609 24.4708 65.1128 31.5227 73.8118 31.5227ZM73.8118 31.5436C82.5223 31.5436 89.5836 24.4823 89.5836 15.7718C89.5836 7.06127 82.5223 0 73.8118 0C65.1013 0 58.04 7.06127 58.04 15.7718C58.04 24.4823 65.1013 31.5436 73.8118 31.5436Z" fill="#0087CA"/>
<path d="M259.919 36.2746C259.919 43.0688 254.411 48.5766 247.617 48.5766C240.823 48.5766 235.315 43.0688 235.315 36.2746C235.315 29.4804 240.823 23.9727 247.617 23.9727C254.411 23.9727 259.919 29.4804 259.919 36.2746Z" fill="#DDF1FF"/>
<path fill-rule="evenodd" clip-rule="evenodd" d="M247.617 48.5603C254.402 48.5603 259.903 43.0598 259.903 36.2746C259.903 29.4894 254.402 23.9889 247.617 23.9889C240.832 23.9889 235.331 29.4894 235.331 36.2746C235.331 43.0598 240.832 48.5603 247.617 48.5603ZM247.617 48.5766C254.411 48.5766 259.919 43.0688 259.919 36.2746C259.919 29.4804 254.411 23.9727 247.617 23.9727C240.823 23.9727 235.315 29.4804 235.315 36.2746C235.315 43.0688 240.823 48.5766 247.617 48.5766Z" fill="#0087CA"/>
<path d="M249.825 221.12C249.825 224.43 247.142 227.114 243.832 227.114C240.522 227.114 237.838 224.43 237.838 221.12C237.838 217.81 240.522 215.127 243.832 215.127C247.142 215.127 249.825 217.81 249.825 221.12Z" fill="#DDF1FF"/>
<path fill-rule="evenodd" clip-rule="evenodd" d="M243.832 227.106C247.137 227.106 249.817 224.426 249.817 221.12C249.817 217.815 247.137 215.135 243.832 215.135C240.526 215.135 237.846 217.815 237.846 221.12C237.846 224.426 240.526 227.106 243.832 227.106ZM243.832 227.114C247.142 227.114 249.825 224.43 249.825 221.12C249.825 217.81 247.142 215.127 243.832 215.127C240.522 215.127 237.838 217.81 237.838 221.12C237.838 224.43 240.522 227.114 243.832 227.114Z" fill="#0087CA"/>
<path d="M178.333 43.3921C177.8 43.2789 177.8 42.5187 178.333 42.4055L185.134 40.9592C185.328 40.9179 185.48 40.7667 185.522 40.5728L186.987 33.8161C187.102 33.2862 187.858 33.2862 187.973 33.8161L189.438 40.5728C189.48 40.7667 189.632 40.9179 189.826 40.9592L196.627 42.4055C197.16 42.5187 197.16 43.2789 196.627 43.3921L189.826 44.8384C189.632 44.8797 189.48 45.0309 189.438 45.2248L187.973 51.9814C187.858 52.5114 187.102 52.5114 186.987 51.9814L185.522 45.2248C185.48 45.0309 185.328 44.8797 185.134 44.8384L178.333 43.3921Z" fill="#0087CA"/>
<path fill-rule="evenodd" clip-rule="evenodd" d="M185.187 41.2058L178.385 42.6521C178.119 42.7088 178.119 43.0888 178.385 43.1455L185.187 44.5917C185.478 44.6537 185.705 44.8805 185.768 45.1714L187.234 51.928C187.291 52.193 187.669 52.193 187.726 51.928L189.192 45.1714C189.255 44.8805 189.482 44.6537 189.774 44.5917L196.575 43.1455C196.841 43.0888 196.841 42.7088 196.575 42.6521L189.774 41.2058C189.482 41.1439 189.255 40.9171 189.192 40.6262L187.726 33.8696C187.669 33.6046 187.291 33.6046 187.234 33.8696L185.768 40.6262C185.705 40.9171 185.478 41.1439 185.187 41.2058ZM178.333 42.4055C177.8 42.5187 177.8 43.2789 178.333 43.3921L185.134 44.8384C185.328 44.8797 185.48 45.0309 185.522 45.2248L186.987 51.9814C187.102 52.5114 187.858 52.5114 187.973 51.9814L189.438 45.2248C189.48 45.0309 189.632 44.8797 189.826 44.8384L196.627 43.3921C197.16 43.2789 197.16 42.5187 196.627 42.4055L189.826 40.9592C189.632 40.9179 189.48 40.7667 189.438 40.5728L187.973 33.8161C187.858 33.2862 187.102 33.2862 186.987 33.8161L185.522 40.5728C185.48 40.7667 185.328 40.9179 185.134 40.9592L178.333 42.4055Z" fill="#0087CA"/>
<path d="M18.662 162.585C18.8219 161.83 19.9001 161.83 20.06 162.585L22.0758 172.109C22.1341 172.384 22.3481 172.599 22.6228 172.659L32.0551 174.714C32.805 174.877 32.805 175.947 32.0551 176.11L22.6228 178.165C22.3481 178.225 22.1341 178.44 22.0758 178.715L20.06 188.239C19.9001 188.994 18.8219 188.994 18.662 188.239L16.6461 178.715C16.5879 178.44 16.3738 178.225 16.0992 178.165L6.66682 176.11C5.91695 175.947 5.91695 174.877 6.66682 174.714L16.0992 172.659C16.3738 172.599 16.5879 172.384 16.6461 172.109L18.662 162.585Z" fill="#0087CA"/>
<path fill-rule="evenodd" clip-rule="evenodd" d="M21.3768 172.257L19.361 162.733L17.3451 172.257C17.2287 172.807 16.8006 173.237 16.2513 173.357L6.81891 175.412L16.2513 177.467C16.8006 177.586 17.2287 178.017 17.3451 178.567L19.361 188.091L21.3768 178.567C21.4933 178.017 21.9214 177.586 22.4707 177.467L31.903 175.412L22.4707 173.357C21.9214 173.237 21.4933 172.807 21.3768 172.257ZM20.06 162.585C19.9001 161.83 18.8219 161.83 18.662 162.585L16.6461 172.109C16.5879 172.384 16.3738 172.599 16.0992 172.659L6.66682 174.714C5.91695 174.877 5.91695 175.947 6.66682 176.11L16.0992 178.165C16.3738 178.225 16.5879 178.44 16.6461 178.715L18.662 188.239C18.8219 188.994 19.9001 188.994 20.06 188.239L22.0758 178.715C22.1341 178.44 22.3481 178.225 22.6228 178.165L32.0551 176.11C32.805 175.947 32.805 174.877 32.0551 174.714L22.6228 172.659C22.3481 172.599 22.1341 172.384 22.0758 172.109L20.06 162.585Z" fill="#0087CA"/>
<path d="M178.253 249.551C178.413 248.796 179.491 248.796 179.651 249.551L180.788 254.924C180.846 255.199 181.061 255.414 181.335 255.474L186.676 256.637C187.426 256.801 187.426 257.87 186.676 258.034L181.335 259.197C181.061 259.257 180.846 259.472 180.788 259.747L179.651 265.12C179.491 265.876 178.413 265.876 178.253 265.12L177.116 259.747C177.058 259.472 176.843 259.257 176.569 259.197L171.228 258.034C170.478 257.87 170.478 256.801 171.228 256.637L176.569 255.474C176.843 255.414 177.058 255.199 177.116 254.924L178.253 249.551Z" fill="#0087CA"/>
<path fill-rule="evenodd" clip-rule="evenodd" d="M180.089 255.072L178.952 249.699L177.815 255.072C177.698 255.622 177.27 256.052 176.721 256.172L171.38 257.336L176.721 258.499C177.27 258.619 177.698 259.049 177.815 259.599L178.952 264.972L180.089 259.599C180.206 259.049 180.634 258.619 181.183 258.499L186.524 257.336L181.183 256.172C180.634 256.052 180.206 255.622 180.089 255.072ZM179.651 249.551C179.491 248.796 178.413 248.796 178.253 249.551L177.116 254.924C177.058 255.199 176.843 255.414 176.569 255.474L171.228 256.637C170.478 256.801 170.478 257.87 171.228 258.034L176.569 259.197C176.843 259.257 177.058 259.472 177.116 259.747L178.253 265.12C178.413 265.876 179.491 265.876 179.651 265.12L180.788 259.747C180.846 259.472 181.061 259.257 181.335 259.197L186.676 258.034C187.426 257.87 187.426 256.801 186.676 256.637L181.335 255.474C181.061 255.414 180.846 255.199 180.788 254.924L179.651 249.551Z" fill="#0087CA"/>
<path d="M266.983 80.1749L191.415 65.6943C187.539 64.9516 183.795 67.4913 183.053 71.3668L163.506 173.372C163.084 175.577 163.722 177.852 165.23 179.516L200.35 218.254C202.71 220.857 206.611 221.358 209.552 219.437L250.477 192.693C252.099 191.633 253.22 189.959 253.585 188.056L272.655 88.5368C273.398 84.6613 270.858 80.9175 266.983 80.1749Z" fill="#0087CA"/>
<path d="M213.167 101.889C207.454 100.668 201.842 104.264 200.634 109.92C199.658 114.486 199.153 125.71 214.633 140.472C214.911 140.735 215.255 140.916 215.629 140.996C216.002 141.075 216.391 141.051 216.752 140.925C236.912 133.777 241.037 123.326 242.013 118.76C243.221 113.104 239.568 107.529 233.856 106.309C228.144 105.088 222.185 110.306 222.185 110.306C222.185 110.306 218.879 103.109 213.167 101.889Z" fill="white"/>
<path fill-rule="evenodd" clip-rule="evenodd" d="M221.253 108.613C219.896 106.407 217.102 102.73 213.167 101.889C207.454 100.668 201.842 104.264 200.634 109.92C199.658 114.486 199.153 125.71 214.633 140.472C214.911 140.735 215.255 140.916 215.629 140.996C216.002 141.075 216.391 141.051 216.752 140.925C236.912 133.777 241.037 123.326 242.013 118.76C243.221 113.104 239.568 107.529 233.856 106.309C229.921 105.468 225.868 107.683 223.728 109.142C222.762 109.801 222.185 110.306 222.185 110.306C222.185 110.306 221.865 109.609 221.253 108.613ZM223.436 111.733C223.435 111.734 223.435 111.734 223.435 111.734C223.435 111.734 223.434 111.735 223.434 111.735C223.434 111.735 223.434 111.735 223.434 111.735C223.434 111.735 223.434 111.735 223.433 111.735C222.983 112.129 222.374 112.287 221.789 112.162C221.204 112.037 220.712 111.644 220.462 111.101M220.462 111.101C220.462 111.1 220.462 111.1 220.461 111.1L220.461 111.099C220.461 111.099 220.461 111.098 220.461 111.098L220.459 111.094L220.438 111.05C220.418 111.009 220.386 110.943 220.341 110.856C220.253 110.682 220.116 110.425 219.934 110.109C219.569 109.474 219.028 108.617 218.328 107.731C216.886 105.904 214.98 104.217 212.77 103.745C208.065 102.74 203.475 105.703 202.49 110.317C202.059 112.331 201.701 115.935 203.269 120.789C204.84 125.655 208.384 131.89 215.938 139.094C215.962 139.117 215.993 139.133 216.025 139.14C216.058 139.147 216.092 139.145 216.124 139.134C225.962 135.645 231.744 131.403 235.167 127.604C238.582 123.814 239.727 120.378 240.157 118.364C241.143 113.75 238.165 109.17 233.46 108.165C231.25 107.693 228.821 108.453 226.758 109.532C225.757 110.054 224.913 110.615 224.32 111.046C224.025 111.26 223.795 111.439 223.643 111.562C223.567 111.623 223.511 111.67 223.476 111.699L223.439 111.73L223.436 111.733" fill="white"/>
<path d="M215.127 193.047C215.127 197.576 211.455 201.248 206.926 201.248C202.396 201.248 198.724 197.576 198.724 193.047C198.724 188.518 202.396 184.846 206.926 184.846C211.455 184.846 215.127 188.518 215.127 193.047Z" fill="#0087CA"/>
<path d="M122.54 33.7728L21.1989 70.4789C17.4887 71.8227 15.5705 75.9198 16.9143 79.6299L65.4741 213.698C66.2387 215.809 67.951 217.437 70.0974 218.096L140.112 239.563C143.471 240.593 147.08 239.029 148.624 235.873L178.736 174.345C179.588 172.605 179.696 170.593 179.036 168.771L131.691 38.0574C130.347 34.3473 126.25 32.429 122.54 33.7728Z" fill="white"/>
<path fill-rule="evenodd" clip-rule="evenodd" d="M20.2256 67.7917L121.567 31.0856C126.761 29.2043 132.497 31.8899 134.378 37.0841L181.723 167.798C182.647 170.349 182.495 173.165 181.303 175.602L151.191 237.129C149.029 241.547 143.976 243.737 139.274 242.296L69.2596 220.828C66.2546 219.906 63.8574 217.626 62.787 214.671L14.2272 80.6032C12.3458 75.409 15.0314 69.6731 20.2256 67.7917ZM21.1989 70.4789L122.54 33.7728C126.25 32.4289 130.347 34.3472 131.691 38.0574L179.036 168.771C179.696 170.593 179.588 172.605 178.736 174.345L148.624 235.873C147.08 239.028 143.471 240.593 140.112 239.563L70.0974 218.095C67.951 217.437 66.2387 215.809 65.4741 213.698L16.9143 79.6299C15.5705 75.9198 17.4887 71.8227 21.1989 70.4789Z" fill="#0087CA"/>
<path d="M69.8914 94.0004C61.6054 97.2519 57.4956 106.539 60.7153 114.744C63.3144 121.368 72.1089 136.057 104.193 141.805C104.767 141.905 105.357 141.845 105.899 141.632C106.441 141.42 106.914 141.062 107.266 140.599C126.879 114.565 123.336 97.8145 120.737 91.1911C117.518 82.9861 108.189 78.9724 99.9025 82.2239C91.6164 85.4754 88.4299 97.1155 88.4299 97.1155C88.4299 97.1155 78.1775 90.7489 69.8914 94.0004Z" fill="#0087CA"/>
<path fill-rule="evenodd" clip-rule="evenodd" d="M85.8219 95.7486C82.2422 94.0854 75.6001 91.7603 69.8914 94.0004C61.6054 97.2519 57.4956 106.539 60.7153 114.744C63.3144 121.368 72.1089 136.057 104.193 141.805C104.767 141.905 105.357 141.845 105.899 141.632C106.441 141.42 106.914 141.062 107.266 140.599C126.879 114.565 123.336 97.8145 120.737 91.1911C117.518 82.9861 108.189 78.9724 99.9025 82.2239C94.1938 84.464 90.9056 90.6858 89.4124 94.3397C88.7382 95.9893 88.4299 97.1155 88.4299 97.1155C88.4299 97.1155 87.438 96.4995 85.8219 95.7486ZM91.2193 97.8791L91.2214 97.872C91.2251 97.8588 91.2319 97.8352 91.2418 97.8016C91.2616 97.7343 91.2938 97.6276 91.3389 97.486C91.4291 97.2026 91.5701 96.7816 91.7652 96.2612C92.1573 95.2157 92.7583 93.7934 93.5903 92.2876C95.3058 89.1827 97.7532 86.174 100.959 84.9161C107.784 82.2379 115.419 85.555 118.045 92.2475C119.192 95.1692 120.625 100.499 119.471 108.187C118.315 115.892 114.533 126.145 104.962 138.85C104.931 138.891 104.89 138.922 104.842 138.94C104.795 138.959 104.743 138.964 104.693 138.956" fill="#0087CA"/>
<path d="M140.684 205.349C140.684 211.098 136.024 215.758 130.275 215.758C124.526 215.758 119.866 211.098 119.866 205.349C119.866 199.6 124.526 194.939 130.275 194.939C136.024 194.939 140.684 199.6 140.684 205.349Z" fill="#0087CA"/>
</svg>
