<svg width="303" height="312" viewBox="0 0 303 312" fill="none" xmlns="http://www.w3.org/2000/svg">
<path d="M31.813 136.476C31.813 136.476 85.0154 134.345 96.5125 46.8918C106.722 -30.7752 196.435 4.57596 222.368 35.5359C255.962 75.6419 238.054 144.633 281.511 153.348C324.969 162.064 296.59 258.965 230.625 249.69C148.565 238.152 168.419 286.103 143.785 306.399C126.106 320.965 53.6154 306.943 51.1994 254.066C49.1663 209.571 30.3974 209.712 17.0938 204.667C-2.09293 197.39 -14.1827 144.692 31.813 136.476Z" fill="#0087CA" fill-opacity="0.1"/>
<path d="M212.671 233.597L160.402 181.947L150.052 192.422L202.321 244.071L212.671 233.597Z" fill="#0087CA" fill-opacity="0.5"/>
<path d="M232.639 247.475L191.972 207.292C191.746 207.068 191.381 207.07 191.157 207.297L175.766 222.873C175.542 223.1 175.544 223.465 175.77 223.688L216.437 263.872C216.663 264.096 217.028 264.093 217.252 263.867L232.643 248.29C232.867 248.064 232.865 247.699 232.639 247.475Z" fill="#0087CA"/>
<path d="M114.075 207.924C150.035 207.924 179.186 178.773 179.186 142.813C179.186 106.853 150.035 77.7012 114.075 77.7012C78.1146 77.7012 48.9633 106.853 48.9633 142.813C48.9633 178.773 78.1146 207.924 114.075 207.924Z" fill="#0087CA"/>
<path d="M114.075 197.301C144.167 197.301 168.562 172.906 168.562 142.813C168.562 112.721 144.167 88.3262 114.075 88.3262C83.9822 88.3262 59.5874 112.721 59.5874 142.813C59.5874 172.906 83.9822 197.301 114.075 197.301Z" fill="#E6F3FA"/>
<path d="M224.153 83.9507C208.88 79.0002 192.375 87.373 187.404 102.709C182.454 117.982 190.826 134.487 206.162 139.457C221.498 144.428 237.96 135.973 242.912 120.699C247.863 105.426 239.427 88.901 224.153 83.9507ZM219.545 98.1689C221.254 98.723 222.761 99.7724 223.873 101.184C224.985 102.595 225.653 104.305 225.792 106.097C225.931 107.889 225.535 109.682 224.654 111.248C223.773 112.814 222.446 114.083 220.842 114.894C219.239 115.706 217.43 116.022 215.647 115.804C213.863 115.586 212.184 114.843 210.823 113.67C209.462 112.496 208.48 110.945 208.002 109.213C207.524 107.481 207.571 105.645 208.137 103.94C209.667 99.2211 214.825 96.6395 219.545 98.1689ZM208.014 133.745C202.94 132.109 198.592 128.76 195.716 124.27C201.098 121.212 206.726 120.36 211.817 122.011C216.908 123.661 221.048 127.61 223.531 133.286C218.569 135.234 213.083 135.397 208.014 133.745Z" fill="#0087CA"/>
<path d="M97.0323 223.127C94.3795 224.481 92.1878 226.592 90.7343 229.191C89.2809 231.791 88.631 234.763 88.8668 237.732C89.1026 240.702 90.2136 243.534 92.0593 245.872C93.9049 248.209 96.4023 249.947 99.2356 250.866C102.069 251.784 105.111 251.841 107.977 251.031C110.843 250.22 113.404 248.578 115.337 246.312C117.27 244.046 118.487 241.257 118.835 238.299C119.183 235.341 118.646 232.346 117.292 229.694C115.473 226.139 112.318 223.452 108.52 222.221C104.722 220.99 100.59 221.316 97.0323 223.127ZM100.54 229.999C101.366 229.577 102.299 229.41 103.22 229.519C104.141 229.628 105.01 230.009 105.714 230.612C106.419 231.215 106.929 232.014 107.179 232.907C107.429 233.801 107.408 234.748 107.119 235.63C106.829 236.511 106.285 237.287 105.554 237.858C104.823 238.43 103.939 238.771 103.014 238.84C102.089 238.908 101.164 238.7 100.358 238.242C99.5508 237.784 98.8982 237.097 98.4826 236.268C97.9317 235.162 97.8387 233.884 98.2238 232.71C98.6089 231.537 99.4411 230.562 100.54 229.998V229.999ZM109.316 247.193C106.867 248.447 104.058 248.812 101.369 248.223C102.218 245.142 103.961 242.777 106.422 241.521C108.883 240.265 111.835 240.196 114.813 241.361C113.712 243.883 111.769 245.945 109.316 247.192V247.193Z" fill="#0087CA"/>
</svg>
