<svg width="12" height="14" viewBox="0 0 12 14" fill="none" xmlns="http://www.w3.org/2000/svg">
<path d="M6.22276 0.353516C3.32087 0.353516 0.960083 2.57296 0.960083 5.30102C0.960083 9.68786 5.69552 13.1404 5.89713 13.2853L6.22279 13.5192L6.54824 13.2853C6.74985 13.1404 11.4855 9.68786 11.4855 5.30102C11.4854 2.57292 9.12467 0.353516 6.22276 0.353516ZM6.22237 12.2309C5.18517 11.3918 2.03234 8.57119 2.03234 5.30102C2.03234 3.12874 3.91189 1.36156 6.22276 1.36156C8.53321 1.36156 10.4132 3.12877 10.4132 5.30102C10.4132 8.56418 7.25912 11.3905 6.22237 12.2309Z" fill="#333333"/>
<path d="M6.31644 7.75923C4.87672 7.75923 3.70538 6.66049 3.70538 5.3099C3.70538 3.95923 4.87668 2.86035 6.31644 2.86035C7.75617 2.86035 8.92747 3.9592 8.92747 5.3099C8.92747 6.66049 7.75617 7.75923 6.31644 7.75923ZM6.31644 3.66369C5.34886 3.66369 4.56165 4.4022 4.56165 5.30993C4.56165 6.21756 5.34886 6.95596 6.31644 6.95596C7.28399 6.95596 8.0712 6.21756 8.0712 5.30993C8.0712 4.40217 7.28403 3.66369 6.31644 3.66369Z" fill="#333333"/>
</svg>
