<svg width="170" height="37" viewBox="0 0 170 37" fill="none" xmlns="http://www.w3.org/2000/svg">
<path d="M56.7795 25.1716C56.1717 25.1716 55.6723 25.0522 55.2816 24.8134C54.8908 24.5529 54.6194 24.173 54.4675 23.6736C54.3372 23.1526 54.3047 22.4796 54.3698 21.6547C54.4566 20.8297 54.6412 19.8528 54.9234 18.7239L56.4539 12.5694C56.5624 12.2221 56.7144 11.9724 56.9098 11.8204C57.1269 11.6468 57.4199 11.5708 57.789 11.5925C58.1146 11.6142 58.3209 11.7227 58.4077 11.9181C58.5162 12.1135 58.5271 12.3632 58.4403 12.6671L56.8446 18.9193C56.5841 19.9614 56.4213 20.8189 56.3562 21.4919C56.2911 22.1431 56.3345 22.6316 56.4864 22.9572C56.6384 23.2612 56.8881 23.4131 57.2354 23.4131C57.5827 23.4131 58.0061 23.2286 58.5054 22.8595C59.0264 22.4905 59.5691 22.002 60.1336 21.3942C60.7197 20.7863 61.2733 20.1242 61.7943 19.4078C62.3153 18.6697 62.7712 17.9533 63.162 17.2586C63.5528 16.5422 63.8241 15.9018 63.9761 15.3373L63.0318 19.7334C62.4456 20.7755 61.7943 21.709 61.0779 22.5339C60.3615 23.3371 59.6343 23.9776 58.8961 24.4552C58.158 24.9328 57.4525 25.1716 56.7795 25.1716ZM57.268 36.7317C56.443 36.7317 55.6181 36.4929 54.7931 36.0153C53.9682 35.5594 53.2518 34.9081 52.6439 34.0615C52.3834 33.7141 52.2857 33.4211 52.3508 33.1823C52.416 32.9435 52.5679 32.7372 52.8067 32.5635C53.0455 32.3682 53.2952 32.3247 53.5557 32.4333C53.8162 32.5635 54.0224 32.7481 54.1744 32.9869C54.652 33.5513 55.173 33.9964 55.7375 34.322C56.3236 34.6476 56.8881 34.8104 57.4308 34.8104C57.9518 34.8104 58.386 34.6585 58.7333 34.3546C59.1024 34.0506 59.3629 33.5947 59.5149 32.9869L64.6599 12.5694C64.7685 12.2221 64.9204 11.9724 65.1158 11.8204C65.3329 11.6468 65.626 11.5708 65.9951 11.5925C66.3207 11.6142 66.5269 11.7227 66.6138 11.9181C66.7223 12.1135 66.7332 12.3632 66.6463 12.6671L61.5013 33.1497C61.219 34.2786 60.698 35.1578 59.9382 35.7874C59.1784 36.4169 58.2883 36.7317 57.268 36.7317Z" fill="#FB9F36"/>
<path d="M49.2855 25.1392C48.6342 25.1392 48.1132 24.9221 47.7225 24.4879C47.3534 24.0321 47.1363 23.3916 47.0712 22.5667C47.0278 21.72 47.1472 20.7214 47.4294 19.5708L52.1186 0.944348C52.2271 0.597001 52.3791 0.3582 52.5745 0.227945C52.7698 0.0759818 53.0521 0 53.4211 0C53.7468 0 53.953 0.108546 54.0398 0.325637C54.1484 0.52102 54.1592 0.770675 54.0724 1.0746L49.3181 19.9941C49.0793 21.0362 48.9707 21.872 48.9924 22.5016C49.0142 23.1094 49.177 23.4133 49.4809 23.4133C49.698 23.4133 50.0019 23.1963 50.3927 22.7621C50.8052 22.3279 51.3153 21.6983 51.9232 20.8734C52.2705 20.4175 52.531 20.0918 52.7047 19.8965C52.9001 19.7011 53.128 19.6034 53.3886 19.6034C53.6274 19.6034 53.8119 19.6902 53.9421 19.8639C54.0941 20.0159 54.1701 20.2221 54.1701 20.4826C54.1701 20.6997 54.105 20.9168 53.9747 21.1339C53.8662 21.3293 53.6165 21.6766 53.2257 22.1759C52.4659 23.1528 51.7495 23.8909 51.0765 24.3903C50.4253 24.8896 49.8282 25.1392 49.2855 25.1392Z" fill="#FB9F36"/>
<path d="M37.9823 25.1395C37.1357 25.1395 36.441 24.8682 35.8983 24.3254C35.3555 23.761 35.0082 22.9795 34.8562 21.9808C34.7043 20.9822 34.7911 19.8208 35.1167 18.4965C35.4858 17.0854 35.996 15.8588 36.6472 14.8168C37.3202 13.7531 38.1017 12.9281 38.9918 12.342C39.8819 11.7341 40.8371 11.4302 41.8574 11.4302C42.6607 11.4302 43.3228 11.669 43.8438 12.1466C44.3865 12.6242 44.6579 13.2103 44.6579 13.905C44.6579 14.7083 44.2563 15.5441 43.4531 16.4124C42.6715 17.2808 41.5969 18.1057 40.2292 18.8873C38.8833 19.6471 37.3528 20.2984 35.6377 20.8411L36.0285 18.7245C37.3094 18.3554 38.4491 17.9104 39.4477 17.3893C40.4463 16.8683 41.2387 16.3147 41.8249 15.7286C42.411 15.1424 42.7041 14.578 42.7041 14.0353C42.7041 13.7965 42.5847 13.6011 42.3459 13.4491C42.1071 13.2755 41.8032 13.1886 41.4341 13.1886C40.8262 13.1886 40.2401 13.4274 39.6757 13.905C39.1112 14.3826 38.6011 15.0448 38.1452 15.8914C37.711 16.7381 37.3528 17.715 37.0706 18.8221C36.7015 20.3418 36.6364 21.4924 36.8752 22.2739C37.1357 23.0337 37.6458 23.4136 38.4057 23.4136C39.1655 23.4136 40.023 23.0446 40.9782 22.3065C41.9551 21.5684 43.084 20.472 44.3648 19.0175C44.5385 18.8004 44.7665 18.6919 45.0487 18.6919C45.3309 18.6702 45.5806 18.7462 45.7976 18.9198C45.993 19.0718 46.0907 19.278 46.0907 19.5386C46.1124 19.7774 46.0364 20.0162 45.8628 20.255C44.4517 21.8831 43.1057 23.1097 41.8249 23.9347C40.544 24.7379 39.2632 25.1395 37.9823 25.1395Z" fill="#FB9F36"/>
<path d="M28.3258 25.1393C28.087 25.1393 27.8808 25.085 27.7071 24.9765C27.5334 24.8462 27.4249 24.6508 27.3815 24.3903L26.0138 12.7651C25.9921 12.5046 26.0464 12.244 26.1766 11.9835C26.3286 11.723 26.6108 11.5928 27.0233 11.5928C27.2404 11.5928 27.4358 11.6579 27.6094 11.7882C27.8048 11.8967 27.9134 12.1138 27.9351 12.4394L28.9771 22.9575L28.3258 22.8598L33.9594 12.2115C34.0679 11.9727 34.1982 11.8099 34.3501 11.723C34.5238 11.6362 34.7192 11.5928 34.9363 11.5928C35.1968 11.5928 35.403 11.6579 35.555 11.7882C35.7287 11.8967 35.8372 12.0487 35.8806 12.244C35.9458 12.4394 35.924 12.6348 35.8155 12.8302L29.3679 24.5206C29.2593 24.7377 29.1291 24.9005 28.9771 25.009C28.8469 25.0959 28.6298 25.1393 28.3258 25.1393Z" fill="#FB9F36"/>
<path d="M17.9289 25.1395C16.6481 25.1395 15.7254 24.5317 15.161 23.3159C14.6183 22.1002 14.5857 20.4938 15.0633 18.4965C15.4324 17.0854 15.9425 15.8588 16.5938 14.8168C17.2668 13.7531 18.0483 12.9281 18.9384 12.342C19.8285 11.7341 20.7837 11.4302 21.804 11.4302C23.1066 11.4302 24.0292 12.038 24.5719 13.2537C25.1364 14.4695 25.1689 16.0868 24.6696 18.1057C24.3223 19.4951 23.8121 20.7217 23.1391 21.7855C22.4878 22.8275 21.7172 23.6524 20.8271 24.2603C19.937 24.8464 18.971 25.1395 17.9289 25.1395ZM18.3522 23.4136C19.2857 23.4136 20.1433 22.8818 20.9248 21.818C21.728 20.7543 22.3359 19.3974 22.7484 17.7475C23.1174 16.2279 23.1717 15.0882 22.9112 14.3284C22.6724 13.5685 22.1622 13.1886 21.3807 13.1886C20.4472 13.1886 19.5897 13.7205 18.8081 14.7842C18.0266 15.8263 17.4296 17.1723 17.0171 18.8221C16.6481 20.3418 16.5829 21.4924 16.8217 22.2739C17.0823 23.0337 17.5924 23.4136 18.3522 23.4136Z" fill="#FB9F36"/>
<path d="M0.846658 25.1392C0.499311 25.1392 0.26051 25.0307 0.130255 24.8136C-1.38639e-08 24.5748 -0.0325638 24.3143 0.0325638 24.0321L5.76379 0.944348C5.85062 0.64042 5.97002 0.412474 6.12199 0.260509C6.29566 0.0868365 6.58873 0 7.00121 0C7.43539 0 7.67419 0.141109 7.71761 0.423327C7.76103 0.683838 7.73932 0.987767 7.65248 1.33511L2.01895 24.1297C1.95383 24.3251 1.84528 24.5422 1.69332 24.781C1.56306 25.0198 1.28084 25.1392 0.846658 25.1392ZM0.911785 25.1392L1.62819 23.4133H11.5601C11.8641 23.4133 12.1029 23.4676 12.2765 23.5762C12.4719 23.6847 12.5696 23.8475 12.5696 24.0646C12.5696 24.3903 12.4502 24.6508 12.2114 24.8461C11.9726 25.0415 11.6361 25.1392 11.2019 25.1392H0.911785Z" fill="#FB9F36"/>
<path d="M157.719 26.6462C156.652 26.6462 155.808 26.336 155.188 25.7158C154.568 25.0955 154.258 24.2519 154.258 23.1851V3.94456C154.531 3.89494 154.965 3.83292 155.56 3.75848C156.156 3.65924 156.726 3.60962 157.272 3.60962C157.843 3.60962 158.339 3.65924 158.761 3.75848C159.207 3.83292 159.58 3.98178 159.877 4.20507C160.175 4.42837 160.398 4.7385 160.547 5.13547C160.696 5.53243 160.771 6.05345 160.771 6.69853V21.3987H169.293C169.467 21.6717 169.628 22.0438 169.777 22.5152C169.926 22.9618 170 23.4332 170 23.9294C170 24.9218 169.789 25.6289 169.367 26.0507C168.946 26.4477 168.387 26.6462 167.693 26.6462H157.719Z" fill="#0087CA"/>
<path d="M151.39 18.1986C151.39 19.5383 151.154 20.7665 150.683 21.8829C150.236 22.9746 149.579 23.9174 148.71 24.7113C147.842 25.4804 146.787 26.0759 145.547 26.4977C144.306 26.9194 142.905 27.1303 141.342 27.1303C139.779 27.1303 138.377 26.9194 137.136 26.4977C135.896 26.0759 134.841 25.4804 133.973 24.7113C133.104 23.9174 132.435 22.9746 131.963 21.8829C131.517 20.7665 131.293 19.5383 131.293 18.1986V3.98216C131.566 3.93254 132 3.87051 132.596 3.79608C133.191 3.69684 133.762 3.64722 134.308 3.64722C134.878 3.64722 135.375 3.69684 135.796 3.79608C136.243 3.87051 136.615 4.01937 136.913 4.24267C137.211 4.46596 137.434 4.77609 137.583 5.17306C137.732 5.57003 137.806 6.09105 137.806 6.73612V18.0869C137.806 19.2778 138.129 20.2082 138.774 20.8781C139.444 21.548 140.3 21.8829 141.342 21.8829C142.408 21.8829 143.264 21.548 143.909 20.8781C144.555 20.2082 144.877 19.2778 144.877 18.0869V3.98216C145.15 3.93254 145.584 3.87051 146.18 3.79608C146.775 3.69684 147.346 3.64722 147.892 3.64722C148.462 3.64722 148.958 3.69684 149.38 3.79608C149.827 3.87051 150.199 4.01937 150.497 4.24267C150.794 4.46596 151.018 4.77609 151.167 5.17306C151.315 5.57003 151.39 6.09105 151.39 6.73612V18.1986Z" fill="#0087CA"/>
<path d="M105.982 15.2211C105.982 13.2859 106.28 11.574 106.875 10.0854C107.495 8.59675 108.327 7.35622 109.369 6.36381C110.435 5.34658 111.676 4.57745 113.09 4.05643C114.529 3.53541 116.08 3.2749 117.742 3.2749C119.404 3.2749 120.943 3.53541 122.357 4.05643C123.796 4.57745 125.049 5.34658 126.116 6.36381C127.183 7.35622 128.014 8.59675 128.609 10.0854C129.229 11.574 129.54 13.2859 129.54 15.2211C129.54 17.1564 129.242 18.8807 128.646 20.3941C128.051 21.8828 127.22 23.1357 126.153 24.1529C125.111 25.1453 123.87 25.9021 122.431 26.4231C120.992 26.9441 119.429 27.2046 117.742 27.2046C116.055 27.2046 114.492 26.9441 113.053 26.4231C111.614 25.8773 110.373 25.0957 109.331 24.0785C108.289 23.0613 107.471 21.8083 106.875 20.3197C106.28 18.8311 105.982 17.1316 105.982 15.2211ZM112.681 15.2211C112.681 17.4789 113.14 19.166 114.058 20.2825C114.976 21.399 116.204 21.9572 117.742 21.9572C119.305 21.9572 120.546 21.399 121.464 20.2825C122.382 19.166 122.841 17.4789 122.841 15.2211C122.841 12.9882 122.382 11.3135 121.464 10.197C120.571 9.08055 119.342 8.52232 117.779 8.52232C116.241 8.52232 115.001 9.08055 114.058 10.197C113.14 11.2887 112.681 12.9634 112.681 15.2211Z" fill="#0087CA"/>
<path d="M88.7886 7.443C88.7886 6.37614 89.0987 5.53259 89.719 4.91232C90.3392 4.29206 91.1828 3.98193 92.2496 3.98193H104.531C104.705 4.25485 104.853 4.6146 104.977 5.06119C105.126 5.50778 105.201 5.97918 105.201 6.47539C105.201 7.41818 104.99 8.08807 104.568 8.48503C104.171 8.882 103.638 9.08049 102.968 9.08049H95.1152V12.5415H103.489C103.662 12.8145 103.811 13.1742 103.935 13.6208C104.084 14.0426 104.159 14.5016 104.159 14.9978C104.159 15.9406 103.96 16.6105 103.563 17.0074C103.166 17.4044 102.633 17.6029 101.963 17.6029H95.1152V21.5105H104.68C104.853 21.7835 105.002 22.1432 105.126 22.5898C105.275 23.0364 105.35 23.5078 105.35 24.004C105.35 24.9468 105.139 25.6291 104.717 26.0509C104.32 26.4478 103.787 26.6463 103.117 26.6463H92.2496C91.1828 26.6463 90.3392 26.3362 89.719 25.7159C89.0987 25.0957 88.7886 24.2521 88.7886 23.1852V7.443Z" fill="#0087CA"/>
<path d="M76.5528 17.5658C75.4611 17.1936 74.4687 16.8215 73.5755 16.4493C72.6823 16.0523 71.9132 15.5809 71.2681 15.0351C70.623 14.4893 70.1144 13.8442 69.7423 13.0999C69.3949 12.3308 69.2213 11.4004 69.2213 10.3087C69.2213 8.19982 70.0276 6.5127 71.6403 5.24737C73.2778 3.98203 75.5603 3.34937 78.488 3.34937C79.5548 3.34937 80.5472 3.4238 81.4652 3.57266C82.3832 3.72152 83.1647 3.95722 83.8098 4.27976C84.4797 4.57748 85.0007 4.97445 85.3729 5.47066C85.745 5.94206 85.9311 6.5003 85.9311 7.14537C85.9311 7.79044 85.7823 8.34868 85.4845 8.82008C85.1868 9.26667 84.827 9.65123 84.4053 9.97376C83.8594 9.62642 83.1275 9.32869 82.2095 9.08059C81.2916 8.80767 80.2867 8.67122 79.1951 8.67122C78.0786 8.67122 77.2598 8.83248 76.7388 9.15502C76.2178 9.45275 75.9573 9.83731 75.9573 10.3087C75.9573 10.6809 76.1186 10.991 76.4411 11.2391C76.7636 11.4624 77.2474 11.6733 77.8925 11.8718L79.8649 12.5044C82.1971 13.2487 83.9835 14.204 85.224 15.37C86.4893 16.5113 87.122 18.0744 87.122 20.0592C87.122 22.1681 86.2909 23.88 84.6286 25.195C82.9663 26.4851 80.5224 27.1302 77.2971 27.1302C76.1558 27.1302 75.0889 27.031 74.0965 26.8325C73.1289 26.6588 72.2729 26.3983 71.5286 26.051C70.8091 25.6788 70.2385 25.2322 69.8167 24.7112C69.4197 24.1654 69.2213 23.5451 69.2213 22.8504C69.2213 22.1309 69.4321 21.523 69.8539 21.0268C70.2757 20.5058 70.7347 20.1088 71.2309 19.8359C71.9256 20.3818 72.7692 20.8532 73.7616 21.2501C74.7788 21.6471 75.8829 21.8456 77.0738 21.8456C78.2895 21.8456 79.1454 21.6595 79.6417 21.2873C80.1379 20.9152 80.386 20.481 80.386 19.9848C80.386 19.4886 80.1875 19.1164 79.7905 18.8683C79.3936 18.5954 78.8353 18.3349 78.1158 18.0868L76.5528 17.5658Z" fill="#0087CA"/>
</svg>
