<svg width="46" height="47" viewBox="0 0 46 47" fill="none" xmlns="http://www.w3.org/2000/svg">
<rect y="0.5" width="46" height="46" rx="18.5447" fill="#BC1238"/>
<path fill-rule="evenodd" clip-rule="evenodd" d="M14.914 24.0415C13.913 23.0317 13.351 21.6669 13.351 20.244C13.351 18.8131 13.919 17.4404 14.9307 16.4287C15.9425 15.4169 17.3152 14.8489 18.746 14.8489C20.1769 14.8489 21.5496 15.4169 22.5614 16.4287L22.9302 16.7975L23.299 16.4287C24.3107 15.4169 25.6824 14.8489 27.1133 14.8489C28.5452 14.8489 29.9169 15.4169 30.9286 16.4287C31.9404 17.4404 32.5094 18.8131 32.5094 20.244C32.5094 21.6669 31.9473 23.0317 30.9454 24.0415L23.6264 31.7915C23.4459 31.9828 23.1935 32.0913 22.9302 32.0913C22.6669 32.0913 22.4144 31.9828 22.234 31.7915L14.914 24.0415ZM22.9302 29.7384L29.555 22.7241L29.5747 22.7043C30.2265 22.0515 30.5933 21.167 30.5933 20.244C30.5933 19.321 30.2265 18.4364 29.5747 17.7836C28.9219 17.1308 28.0363 16.7639 27.1133 16.7639C26.1913 16.7639 25.3057 17.1308 24.6529 17.7836L23.6076 18.8299C23.2329 19.2036 22.6264 19.2036 22.2527 18.8299L21.2064 17.7836C20.5546 17.1308 19.669 16.7639 18.746 16.7639C17.823 16.7639 16.9385 17.1308 16.2857 17.7836C15.6328 18.4364 15.267 19.321 15.267 20.244C15.267 21.167 15.6328 22.0515 16.2857 22.7043C16.2926 22.7113 16.2985 22.7172 16.3044 22.7241L22.9302 29.7384Z" fill="white"/>
</svg>
