<svg width="23" height="19" viewBox="0 0 23 19" fill="none" xmlns="http://www.w3.org/2000/svg">
<path d="M18.0216 7.71762C18.0216 9.42069 17.4009 10.9939 16.3554 12.2703L21.6288 16.9713C22.1495 17.4351 22.1495 18.1884 21.6288 18.6522C21.1082 19.1159 20.2626 19.1159 19.7419 18.6522L14.4685 13.9511C13.0356 14.8861 11.2694 15.4352 9.35747 15.4352C4.57138 15.4352 0.693359 11.9809 0.693359 7.71762C0.693359 3.45438 4.57138 0 9.35747 0C14.1436 0 18.0216 3.45438 18.0216 7.71762ZM9.35747 13.0606C10.1452 13.0606 10.9252 12.9224 11.6529 12.6539C12.3806 12.3854 13.0419 11.9918 13.5989 11.4957C14.1558 10.9995 14.5977 10.4105 14.8991 9.76228C15.2006 9.11405 15.3557 8.41927 15.3557 7.71762C15.3557 7.01597 15.2006 6.32119 14.8991 5.67295C14.5977 5.02472 14.1558 4.43571 13.5989 3.93957C13.0419 3.44343 12.3806 3.04987 11.6529 2.78136C10.9252 2.51285 10.1452 2.37465 9.35747 2.37465C8.56977 2.37465 7.78978 2.51285 7.06205 2.78136C6.33431 3.04987 5.67307 3.44343 5.11608 3.93957C4.55909 4.43571 4.11727 5.02472 3.81583 5.67295C3.51439 6.32119 3.35924 7.01597 3.35924 7.71762C3.35924 8.41927 3.51439 9.11405 3.81583 9.76228C4.11727 10.4105 4.55909 10.9995 5.11608 11.4957C5.67307 11.9918 6.33431 12.3854 7.06205 12.6539C7.78978 12.9224 8.56977 13.0606 9.35747 13.0606Z" fill="white"/>
</svg>
