<svg width="18" height="11" viewBox="0 0 18 11" fill="none" xmlns="http://www.w3.org/2000/svg">
<path opacity="0.5" d="M9 3.46217L2.32013 10.5621C2.19564 10.6991 2.04674 10.8084 1.8821 10.8836C1.71746 10.9587 1.54038 10.9983 1.36119 10.9999C1.18201 11.0016 1.00432 10.9653 0.838472 10.8932C0.672628 10.8211 0.521955 10.7146 0.39525 10.5799C0.268545 10.4452 0.168343 10.2851 0.100491 10.1088C0.0326385 9.93253 -0.0015049 9.74365 5.14984e-05 9.5532C0.0016098 9.36275 0.0388355 9.17454 0.10956 8.99955C0.180285 8.82455 0.283089 8.66628 0.411978 8.53397L8.04593 0.419953C8.29899 0.151057 8.64217 0 9 0C9.35783 0 9.70101 0.151057 9.95408 0.419953L17.588 8.53397C17.7169 8.66628 17.8197 8.82455 17.8904 8.99955C17.9612 9.17454 17.9984 9.36275 17.9999 9.5532C18.0015 9.74365 17.9674 9.93253 17.8995 10.1088C17.8317 10.2851 17.7315 10.4452 17.6047 10.5799C17.478 10.7146 17.3274 10.8211 17.1615 10.8932C16.9957 10.9653 16.818 11.0016 16.6388 10.9999C16.4596 10.9983 16.2825 10.9587 16.1179 10.8836C15.9533 10.8084 15.8044 10.6991 15.6799 10.5621L9 3.46217Z" fill="black"/>
</svg>
